<svg width="90" height="34" viewBox="0 0 90 34" fill="none" xmlns="http://www.w3.org/2000/svg">
<rect y="2" width="30" height="30" rx="3" fill="black"/>
<path d="M15.5643 12.68H10.6443C10.551 12.5333 10.4643 12.3333 10.3843 12.08C10.3043 11.8267 10.2643 11.56 10.2643 11.28C10.2643 10.76 10.3776 10.3867 10.6043 10.16C10.8443 9.93333 11.151 9.82 11.5243 9.82H18.9843C19.571 10.3 19.8643 10.94 19.8643 11.74C19.8643 12.0733 19.7843 12.4067 19.6243 12.74C19.4776 13.06 19.2843 13.3667 19.0443 13.66L14.5043 19.14H19.6243C19.7176 19.2867 19.8043 19.4867 19.8843 19.74C19.9643 19.9933 20.0043 20.26 20.0043 20.54C20.0043 21.06 19.8843 21.4333 19.6443 21.66C19.4176 21.8867 19.1176 22 18.7443 22H10.8643C10.6376 21.8133 10.451 21.56 10.3043 21.24C10.1576 20.92 10.0843 20.5533 10.0843 20.14C10.0843 19.8067 10.171 19.4667 10.3443 19.12C10.5176 18.7733 10.7243 18.4533 10.9643 18.16L15.5643 12.68Z" fill="#EA580C"/>
<path d="M43.16 12.68H38.24C38.1467 12.5333 38.06 12.3333 37.98 12.08C37.9 11.8267 37.86 11.56 37.86 11.28C37.86 10.76 37.9733 10.3867 38.2 10.16C38.44 9.93333 38.7467 9.82 39.12 9.82H46.58C47.1667 10.3 47.46 10.94 47.46 11.74C47.46 12.0733 47.38 12.4067 47.22 12.74C47.0733 13.06 46.88 13.3667 46.64 13.66L42.1 19.14H47.22C47.3133 19.2867 47.4 19.4867 47.48 19.74C47.56 19.9933 47.6 20.26 47.6 20.54C47.6 21.06 47.48 21.4333 47.24 21.66C47.0133 21.8867 46.7133 22 46.34 22H38.46C38.2333 21.8133 38.0467 21.56 37.9 21.24C37.7533 20.92 37.68 20.5533 37.68 20.14C37.68 19.8067 37.7667 19.4667 37.94 19.12C38.1133 18.7733 38.32 18.4533 38.56 18.16L43.16 12.68ZM49.1533 12.42C49.2866 12.38 49.4933 12.34 49.7733 12.3C50.0666 12.26 50.3666 12.24 50.6733 12.24C50.9666 12.24 51.2266 12.26 51.4533 12.3C51.6933 12.34 51.8933 12.42 52.0533 12.54C52.2133 12.66 52.3333 12.8267 52.4133 13.04C52.5066 13.24 52.5533 13.5067 52.5533 13.84V18.14C52.5533 18.6867 52.6866 19.08 52.9533 19.32C53.2199 19.5467 53.6066 19.66 54.1133 19.66C54.4199 19.66 54.6666 19.6333 54.8533 19.58C55.0533 19.5267 55.2066 19.4733 55.3133 19.42V12.42C55.4466 12.38 55.6533 12.34 55.9333 12.3C56.2266 12.26 56.5266 12.24 56.8333 12.24C57.1266 12.24 57.3866 12.26 57.6133 12.3C57.8533 12.34 58.0533 12.42 58.2133 12.54C58.3733 12.66 58.4933 12.8267 58.5733 13.04C58.6666 13.24 58.7133 13.5067 58.7133 13.84V19.92C58.7133 20.5867 58.4333 21.0867 57.8733 21.42C57.4066 21.7133 56.8466 21.9333 56.1933 22.08C55.5533 22.24 54.8533 22.32 54.0933 22.32C53.3733 22.32 52.7066 22.24 52.0933 22.08C51.4933 21.92 50.9733 21.6733 50.5333 21.34C50.0933 21.0067 49.7533 20.58 49.5133 20.06C49.2733 19.5267 49.1533 18.8867 49.1533 18.14V12.42ZM70.2939 20.24C70.2272 20.8667 70.0406 21.3467 69.7339 21.68C69.4406 22.0133 69.0072 22.18 68.4339 22.18C68.0072 22.18 67.6272 22.08 67.2939 21.88C66.9606 21.6667 66.6006 21.3133 66.2139 20.82L64.2339 18.34V21.98C64.0872 22.0067 63.8672 22.04 63.5739 22.08C63.2939 22.1333 63.0072 22.16 62.7139 22.16C62.4206 22.16 62.1539 22.14 61.9139 22.1C61.6872 22.06 61.4939 21.98 61.3339 21.86C61.1739 21.74 61.0472 21.58 60.9539 21.38C60.8739 21.1667 60.8339 20.8933 60.8339 20.56V8.98C60.9806 8.94 61.1939 8.9 61.4739 8.86C61.7672 8.80667 62.0606 8.78 62.3539 8.78C62.6472 8.78 62.9072 8.8 63.1339 8.84C63.3739 8.88 63.5739 8.96 63.7339 9.08C63.8939 9.2 64.0139 9.36667 64.0939 9.58C64.1872 9.78 64.2339 10.0467 64.2339 10.38V15.66L67.6739 12.14C68.3672 12.14 68.9206 12.2933 69.3339 12.6C69.7606 12.9067 69.9739 13.2933 69.9739 13.76C69.9739 13.96 69.9406 14.1467 69.8739 14.32C69.8072 14.48 69.7006 14.6467 69.5539 14.82C69.4206 14.9933 69.2406 15.18 69.0139 15.38C68.8006 15.5667 68.5472 15.7867 68.2539 16.04L67.0939 17.04L70.2939 20.24ZM75.2877 21.98C75.1543 22.02 74.941 22.06 74.6477 22.1C74.3677 22.14 74.0743 22.16 73.7677 22.16C73.4743 22.16 73.2077 22.14 72.9677 22.1C72.741 22.06 72.5477 21.98 72.3877 21.86C72.2277 21.74 72.101 21.58 72.0077 21.38C71.9277 21.1667 71.8877 20.8933 71.8877 20.56V14.56C71.8877 14.2533 71.941 13.9933 72.0477 13.78C72.1677 13.5533 72.3343 13.3533 72.5477 13.18C72.761 13.0067 73.021 12.8533 73.3277 12.72C73.6477 12.5733 73.9877 12.4467 74.3477 12.34C74.7077 12.2333 75.081 12.1533 75.4677 12.1C75.8543 12.0333 76.241 12 76.6277 12C77.2677 12 77.7743 12.1267 78.1477 12.38C78.521 12.62 78.7077 13.02 78.7077 13.58C78.7077 13.7667 78.681 13.9533 78.6277 14.14C78.5743 14.3133 78.5077 14.4733 78.4277 14.62C78.1477 14.62 77.861 14.6333 77.5677 14.66C77.2743 14.6867 76.9877 14.7267 76.7077 14.78C76.4277 14.8333 76.161 14.8933 75.9077 14.96C75.6677 15.0133 75.461 15.08 75.2877 15.16V21.98ZM84.8792 22.32C84.0926 22.32 83.3592 22.2133 82.6792 22C82.0126 21.7733 81.4259 21.44 80.9192 21C80.4259 20.56 80.0326 20.0067 79.7392 19.34C79.4592 18.6733 79.3192 17.8933 79.3192 17C79.3192 16.12 79.4592 15.3667 79.7392 14.74C80.0326 14.1 80.4126 13.58 80.8792 13.18C81.3459 12.7667 81.8792 12.4667 82.4792 12.28C83.0792 12.08 83.6926 11.98 84.3192 11.98C85.0259 11.98 85.6659 12.0867 86.2392 12.3C86.8259 12.5133 87.3259 12.8067 87.7392 13.18C88.1659 13.5533 88.4926 14 88.7192 14.52C88.9592 15.04 89.0792 15.6067 89.0792 16.22C89.0792 16.6733 88.9526 17.02 88.6992 17.26C88.4459 17.5 88.0926 17.6533 87.6392 17.72L82.6992 18.46C82.8459 18.9 83.1459 19.2333 83.5992 19.46C84.0526 19.6733 84.5726 19.78 85.1592 19.78C85.7059 19.78 86.2192 19.7133 86.6992 19.58C87.1926 19.4333 87.5926 19.2667 87.8992 19.08C88.1126 19.2133 88.2926 19.4 88.4392 19.64C88.5859 19.88 88.6592 20.1333 88.6592 20.4C88.6592 21 88.3792 21.4467 87.8192 21.74C87.3926 21.9667 86.9126 22.12 86.3792 22.2C85.8459 22.28 85.3459 22.32 84.8792 22.32ZM84.3192 14.46C83.9992 14.46 83.7192 14.5133 83.4792 14.62C83.2526 14.7267 83.0659 14.8667 82.9192 15.04C82.7726 15.2 82.6592 15.3867 82.5792 15.6C82.5126 15.8 82.4726 16.0067 82.4592 16.22L85.8792 15.66C85.8392 15.3933 85.6926 15.1267 85.4392 14.86C85.1859 14.5933 84.8126 14.46 84.3192 14.46Z" fill="#EA580C"/>
</svg>
